<svg width="116" height="115" viewBox="0 0 116 115" fill="none" xmlns="http://www.w3.org/2000/svg">
<rect x="0.5" width="115" height="115" rx="57.5" fill="#F7F7F8"/>
<path fill-rule="evenodd" clip-rule="evenodd" d="M58.5 54.2C60.4891 54.2 62.3968 53.3993 63.8033 51.974C65.2098 50.5487 66 48.6156 66 46.6C66 44.5844 65.2098 42.6513 63.8033 41.226C62.3968 39.8007 60.4891 39 58.5 39C56.5109 39 54.6032 39.8007 53.1967 41.226C51.7902 42.6513 51 44.5844 51 46.6C51 48.6156 51.7902 50.5487 53.1967 51.974C54.6032 53.3993 56.5109 54.2 58.5 54.2ZM41 77C41 74.6712 41.4527 72.3653 42.3321 70.2137C43.2116 68.0622 44.5006 66.1073 46.1256 64.4606C47.7507 62.8139 49.6798 61.5077 51.803 60.6165C53.9262 59.7254 56.2019 59.2667 58.5 59.2667C60.7981 59.2667 63.0738 59.7254 65.197 60.6165C67.3202 61.5077 69.2493 62.8139 70.8744 64.4606C72.4994 66.1073 73.7884 68.0622 74.6679 70.2137C75.5474 72.3653 76 74.6712 76 77H41Z" fill="#D2D6DB"/>
</svg>
